<?xml version="1.0" encoding="UTF-8" standalone="no"?>
<!-- Created with Inkscape (http://www.inkscape.org/) -->

<svg
   width="128mm"
   height="72mm"
   viewBox="0 0 128 72"
   version="1.1"
   id="svg5"
   inkscape:version="1.1.2 (b8e25be833, 2022-02-05)"
   sodipodi:docname="abban-logo.svg"
   xmlns:inkscape="http://www.inkscape.org/namespaces/inkscape"
   xmlns:sodipodi="http://sodipodi.sourceforge.net/DTD/sodipodi-0.dtd"
   xmlns="http://www.w3.org/2000/svg"
   xmlns:svg="http://www.w3.org/2000/svg">
  <sodipodi:namedview
     id="namedview7"
     pagecolor="#ffffff"
     bordercolor="#666666"
     borderopacity="1.0"
     inkscape:pageshadow="2"
     inkscape:pageopacity="0.0"
     inkscape:pagecheckerboard="0"
     inkscape:document-units="mm"
     showgrid="true"
     inkscape:zoom="1.9862876"
     inkscape:cx="237.12579"
     inkscape:cy="179.98401"
     inkscape:window-width="1920"
     inkscape:window-height="1051"
     inkscape:window-x="-9"
     inkscape:window-y="-9"
     inkscape:window-maximized="1"
     inkscape:current-layer="svg5"
     showguides="true"
     inkscape:snap-global="false"
     objecttolerance="10000"
     inkscape:snap-path-clip="true"
     inkscape:snap-path-mask="true"
     guidetolerance="10000"
     inkscape:snap-bbox="true">
    <inkscape:grid
       type="xygrid"
       id="grid1271"
       empcolor="#c03fff"
       empopacity="1"
       color="#ff001d"
       opacity="0.73333333"
       units="mm"
       snapvisiblegridlinesonly="true"
       originx="63.999998"
       originy="63.999998"
       spacingx="1.5"
       spacingy="1.5"
       enabled="true"
       visible="false" />
  </sodipodi:namedview>
  <defs
     id="defs2" />
  <g
     inkscape:label="Layer 1"
     inkscape:groupmode="layer"
     id="layer1">
    <path
       id="rect1144"
       style="fill:#5fb9b0;fill-opacity:1;stroke:none;stroke-width:0.464235;stroke-linecap:round;stroke-linejoin:round"
       d="m 14.145383,2.3484167 v 7.478105 H 1.6821596 V 42.231078 l 6.05e-5,19.942378 h 2.4927102 v 7.478133 H 16.638486 v -7.478133 h 2.492711 l -6.04e-4,-17.339278 7.478738,-0.109696 0.0629,-2.493401 79.703859,6.84e-4 v 2.492711 h 2.4927 V 62.17346 h 2.49271 v 7.478128 h 12.46357 v -7.478133 h 2.49271 l 6e-5,-19.942379 h -8.6e-4 l 8e-4,-29.91185 -8e-4,-2.4927103 h -4.98463 -7.47861 v -7.478105 z"
       sodipodi:nodetypes="cccccccccccccccccccccccccccccc" />
  </g>
  <g
     aria-label="{}"
     transform="matrix(1.6110972,0,0,1.7141138,-45.883149,-38.517594)"
     id="text3706"
     style="font-size:17.5159px;line-height:1.25;font-family:'Press Start 2P';-inkscape-font-specification:'Press Start 2P, Normal';fill:#000000;fill-opacity:1;stroke-width:0.437898">
    <path
       d="M 73.896224,40.96888 V 38.779393 H 71.706737 V 34.400418 H 69.517249 V 32.21093 h 2.189488 v -4.378975 h 2.189487 v -2.189487 h 4.378975 v 2.189487 h -2.189487 v 4.378975 h -2.189488 v 2.189488 h 2.189488 v 4.378975 h 2.189487 v 2.189487 z"
       id="path912"
       style="fill:#bef992;fill-opacity:1" />
    <path
       d="m 84.843661,40.96888 v -2.189487 h 2.189488 v -4.378975 h 2.189487 V 32.21093 h -2.189487 v -4.378975 h -2.189488 v -2.189487 h 4.378975 v 2.189487 h 2.189488 v 4.378975 h 2.189489 v 2.189488 h -2.189489 v 4.378975 h -2.189488 v 2.189487 z"
       id="path914"
       style="fill:#bef992;fill-opacity:1" />
    <path
       style="fill:#bef992;fill-opacity:1;stroke:none;stroke-width:0.264583px;stroke-linecap:butt;stroke-linejoin:miter;stroke-opacity:1"
       d="m 42.806233,34.416712 v 2.908454 h 1.547213 v 1.454227 h 4.641642 v -1.454227 h 1.547213 v -7.271135 h 1.547213 v 1.454227 h 1.547213 v 1.454227 1.454227 h 1.547213 v -1.454227 -2.908454 l -1.547214,-10e-7 10e-7,-1.454228 h -1.547213 v -1.454227 h -1.547213 v -1.454227 h -1.547213 v 7.271137 h -4.641642 v 1.454227 h -1.547213"
       id="path2294"
       sodipodi:nodetypes="ccccccccccccccccccccccccccc" />
    <g
       aria-label="ABBAN FAHIM"
       transform="scale(1.3448205,0.74359366)"
       id="text4173"
       style="font-size:6.5246px;fill:#bef992;stroke:#413d65;stroke-width:0.312311">
      <path
         d="m 34.81229,71.75593 v -5.254471 h 0.815575 v -1.050894 h 0.815575 v -1.050894 h 2.446725 v 1.050894 h 0.815575 v 1.050894 h 0.815575 v 5.254471 h -1.63115 V 69.654141 H 36.44344 v 2.101789 z m 1.63115,-3.152683 h 2.446725 V 66.501459 H 38.07459 v -1.050894 h -0.815575 v 1.050894 H 36.44344 Z"
         id="path2983"
         style="stroke-width:0.354515" />
      <path
         d="m 41.33689,71.75593 v -7.356259 h 4.89345 v 1.050894 h 0.815575 v 2.101788 H 46.23034 v 1.050894 h 0.815575 v 2.101789 H 46.23034 v 1.050894 z m 1.63115,-4.203577 h 2.446725 V 65.450565 H 42.96804 Z m 0,3.152683 h 2.446725 V 68.603247 H 42.96804 Z"
         id="path2985"
         style="stroke-width:0.354515" />
      <path
         d="m 47.86149,71.75593 v -7.356259 h 4.89345 v 1.050894 h 0.815575 v 2.101788 H 52.75494 v 1.050894 h 0.815575 v 2.101789 H 52.75494 v 1.050894 z m 1.63115,-4.203577 h 2.446725 V 65.450565 H 49.49264 Z m 0,3.152683 h 2.446725 V 68.603247 H 49.49264 Z"
         id="path2987"
         style="stroke-width:0.354515" />
      <path
         d="m 54.386089,71.75593 v -5.254471 h 0.815575 v -1.050894 h 0.815575 v -1.050894 h 2.446725 v 1.050894 h 0.815575 v 1.050894 h 0.815575 v 5.254471 h -1.63115 v -2.101789 h -2.446725 v 2.101789 z m 1.63115,-3.152683 h 2.446725 v -2.101788 h -0.815575 v -1.050894 h -0.815575 v 1.050894 h -0.815575 z"
         id="path2989"
         style="stroke-width:0.354515" />
      <path
         d="m 60.91069,71.75593 v -7.356259 h 1.63115 v 1.050894 h 0.815575 v 1.050894 h 0.815575 v 1.050894 h 0.815575 v -3.152682 h 1.63115 v 7.356259 h -1.63115 V 69.654141 H 64.17299 V 68.603247 H 63.357415 V 67.552353 H 62.54184 v 4.203577 z"
         id="path2991"
         style="stroke-width:0.354515" />
      <path
         d="m 34.81229,82.264871 v -7.356259 h 5.709025 v 1.050894 H 36.44344 v 2.101788 h 3.2623 v 1.050894 h -3.2623 v 3.152683 z"
         id="path2993"
         style="stroke-width:0.354515" />
      <path
         d="M 41.33689,82.264871 V 77.0104 h 0.815575 v -1.050894 h 0.815575 v -1.050894 h 2.446725 v 1.050894 H 46.23034 V 77.0104 h 0.815575 v 5.254471 h -1.63115 V 80.163082 H 42.96804 v 2.101789 z m 1.63115,-3.152683 h 2.446725 V 77.0104 H 44.59919 V 75.959506 H 43.783615 V 77.0104 H 42.96804 Z"
         id="path2995"
         style="stroke-width:0.354515" />
      <path
         d="m 47.86149,82.264871 v -7.356259 h 1.63115 v 3.152682 h 2.446725 v -3.152682 h 1.63115 v 7.356259 h -1.63115 V 79.112188 H 49.49264 v 3.152683 z"
         id="path2997"
         style="stroke-width:0.354515" />
      <path
         d="m 55.201664,82.264871 v -1.050894 h 1.63115 v -5.254471 h -1.63115 v -1.050894 h 4.89345 v 1.050894 h -1.63115 v 5.254471 h 1.63115 v 1.050894 z"
         id="path2999"
         style="stroke-width:0.354515" />
      <path
         d="m 60.91069,82.264871 v -7.356259 h 1.63115 v 1.050894 h 0.815575 V 77.0104 h 0.815575 v -1.050894 h 0.815575 v -1.050894 h 1.63115 v 7.356259 h -1.63115 V 78.061294 H 64.17299 v 2.101788 H 63.357415 V 78.061294 H 62.54184 v 4.203577 z"
         id="path3001"
         style="stroke-width:0.354515" />
    </g>
  </g>
</svg>
