<?xml version="1.0" encoding="UTF-8"?>
<svg width="1200pt" height="1200pt" version="1.1" viewBox="0 0 1200 1200" xmlns="http://www.w3.org/2000/svg">
 <g>
  <path d="m582.48 952.27s-13.801 41.125-97.031 49.992c-83.23 8.8789-118.74-8.8672-118.74-8.8672s55.488-43.262 108.76-45.492c53.262-2.2227 107.01 4.3672 107.01 4.3672z"/>
  <path d="m582.48 952.27s6.2656-43.02-62.664-90.504c-68.941-47.473-108.62-48.793-108.62-48.793s22.777 58.621 78.254 92.941c45.336 28.043 93.035 46.355 93.035 46.355z"/>
  <path d="m483.78 921.82s-42.445-19.152-106.54-19.152c-64.094 0-112.36 33.301-112.36 33.301s47.438 19.129 115.69 19.129c68.242 0.011719 103.2-33.277 103.2-33.277z"/>
  <path d="m405.32 881.04s-3.4453-46.441-34.031-102.74c-30.59-56.328-82.883-82.848-82.883-82.848s5.8203 50.82 38.398 110.8c32.578 59.961 78.516 74.793 78.516 74.793z"/>
  <path d="m373.32 875.24s-36.781-28.559-99.086-43.559c-62.305-15.012-117.02 6.0469-117.02 6.0469s41.641 29.734 108 45.719c66.336 15.977 108.11-8.207 108.11-8.207z"/>
  <path d="m318.17 825.73s-22.895-40.535-74.566-78.457c-51.672-37.922-110.27-39.648-110.27-39.648s26.93 43.5 81.938 83.891c55.02 40.383 102.9 34.215 102.9 34.215z"/>
  <path d="m263.41 742.36s15.504-41.508 11.449-102.34c-4.043-60.84-38.688-104.57-38.688-104.57s-15.191 46.246-10.883 111.05c4.3203 64.766 38.121 95.855 38.121 95.855z"/>
  <path d="m219.94 703.03s-15.938-36.938-56.82-74.258c-40.895-37.332-91.078-44.207-91.078-44.207s19.117 39.852 62.664 79.598c43.531 39.742 85.234 38.867 85.234 38.867z"/>
  <path d="m195.28 621.17s-1.9688-40.188-27.168-89.484-69.781-73.344-69.781-73.344 3.9375 44.016 30.77 96.516c26.832 52.512 66.18 66.312 66.18 66.312z"/>
  <path d="m178.07 501.27s3.457-40.078-14.879-92.316c-18.348-52.246-59.281-82.066-59.281-82.066s-2.0273 44.148 17.496 99.77c19.527 55.652 56.664 74.613 56.664 74.613z"/>
  <path d="m194.68 422.26s18.395-35.773 21.238-91.066c2.8438-55.297-23.734-98.41-23.734-98.41s-18.625 40.066-21.66 98.953c-3.0352 58.891 24.156 90.523 24.156 90.523z"/>
  <path d="m240.01 327.18s23.965-32.305 35.762-86.398c11.785-54.098-7.4297-100.97-7.4297-100.97s-24.898 36.516-37.453 94.129c-12.551 57.609 9.1211 93.238 9.1211 93.238z"/>
  <path d="m197.38 569.61s29.965-26.832 52.355-77.473c22.391-50.641 12.973-100.41 12.973-100.41s-31.715 30.793-55.559 84.707c-23.855 53.926-9.7695 93.18-9.7695 93.18z"/>
  <path d="m230.5 388.61s38.293-12.324 79.367-49.453c41.062-37.129 52.715-86.426 52.715-86.426s-41.496 15.215-85.223 54.758c-43.75 39.539-46.859 81.121-46.859 81.121z"/>
  <path d="m287.07 277.84s36.238-17.496 71.797-59.902c35.566-42.434 40.32-92.867 40.32-92.867s-39 20.773-76.883 65.965c-37.859 45.176-35.234 86.805-35.234 86.805z"/>
  <path d="m588.24 978.3c0 55.691-91.621 116.29-91.621 86.699 0.003906-29.594 91.621-66.961 91.621-86.699z"/>
  <path d="m641.32 978.3c0 55.691 91.621 116.29 91.621 86.699s-91.621-66.961-91.621-86.699z"/>
  <path d="m647.07 952.27s13.801 41.125 97.031 49.992c83.23 8.8789 118.74-8.8672 118.74-8.8672s-55.488-43.262-108.76-45.492c-53.262-2.2227-107.01 4.3672-107.01 4.3672z"/>
  <path d="m647.07 952.27s-6.2656-43.02 62.664-90.504c68.941-47.473 108.62-48.793 108.62-48.793s-22.766 58.621-78.254 92.941c-45.344 28.043-93.035 46.355-93.035 46.355z"/>
  <path d="m745.77 921.82s42.457-19.152 106.52-19.152c64.105 0 112.38 33.301 112.38 33.301s-47.449 19.129-115.7 19.129c-68.246 0.011719-103.2-33.277-103.2-33.277z"/>
  <path d="m824.23 881.04s3.4453-46.441 34.02-102.74c30.59-56.328 82.883-82.848 82.883-82.848s-5.8203 50.82-38.375 110.8c-32.59 59.961-78.527 74.793-78.527 74.793z"/>
  <path d="m856.23 875.24s36.77-28.559 99.086-43.559c62.305-15.012 117.02 6.0469 117.02 6.0469s-41.641 29.734-107.99 45.719c-66.348 15.977-108.12-8.207-108.12-8.207z"/>
  <path d="m911.38 825.73s22.906-40.535 74.566-78.457c51.684-37.922 110.28-39.648 110.28-39.648s-26.914 43.5-81.938 83.891c-55.016 40.383-102.91 34.215-102.91 34.215z"/>
  <path d="m966.14 742.36s-15.504-41.508-11.461-102.34c4.0547-60.84 38.699-104.57 38.699-104.57s15.191 46.246 10.871 111.05c-4.3047 64.766-38.109 95.855-38.109 95.855z"/>
  <path d="m1009.6 703.03s15.938-36.938 56.82-74.258c40.895-37.332 91.094-44.207 91.094-44.207s-19.141 39.852-62.676 79.598c-43.551 39.742-85.238 38.867-85.238 38.867z"/>
  <path d="m1034.3 621.17s1.957-40.188 27.168-89.484c25.211-49.297 69.781-73.344 69.781-73.344s-3.9258 44.016-30.758 96.516c-26.832 52.512-66.191 66.312-66.191 66.312z"/>
  <path d="m1051.5 501.27s-3.4688-40.078 14.867-92.316c18.336-52.246 59.281-82.066 59.281-82.066s2.0391 44.148-17.508 99.77c-19.512 55.652-56.641 74.613-56.641 74.613z"/>
  <path d="m1034.9 422.26s-18.395-35.773-21.254-91.066c-2.832-55.297 23.734-98.41 23.734-98.41s18.637 40.066 21.672 98.953c3.0273 58.891-24.152 90.523-24.152 90.523z"/>
  <path d="m989.53 327.18s-23.965-32.305-35.746-86.398c-11.785-54.098 7.4141-100.97 7.4141-100.97s24.887 36.516 37.453 94.129c12.574 57.609-9.1211 93.238-9.1211 93.238z"/>
  <path d="m1032.2 569.61s-29.988-26.832-52.379-77.473c-22.391-50.641-12.973-100.41-12.973-100.41s31.715 30.793 55.57 84.707c23.848 53.926 9.7812 93.18 9.7812 93.18z"/>
  <path d="m999.06 388.61s-38.293-12.324-79.355-49.453c-41.09-37.129-52.727-86.426-52.727-86.426s41.484 15.215 85.234 54.758c43.73 39.539 46.848 81.121 46.848 81.121z"/>
  <path d="m942.46 277.84s-36.227-17.496-71.785-59.902c-35.566-42.434-40.332-92.867-40.332-92.867s39.023 20.773 76.895 65.965c37.875 45.176 35.223 86.805 35.223 86.805z"/>
 </g>
</svg>
